<svg xmlns="http://www.w3.org/2000/svg" width="16.057" height="16.056" viewBox="0 0 16.057 16.056">
  <g id="_098-megaphone" data-name="098-megaphone" transform="translate(0)">
    <g id="Group_67777" data-name="Group 67777" transform="translate(0 0)">
      <path id="Path_2345" data-name="Path 2345" d="M15.43,8.862a.627.627,0,0,0,.627-.627V1.9A1.882,1.882,0,0,0,13.542.129l-.052.021L8.464,2.477a8.4,8.4,0,0,1-3.5.783l-2.453.014A2.512,2.512,0,0,0,0,5.783V7.414A2.517,2.517,0,0,0,1.756,9.807v4.362a1.929,1.929,0,0,0,.576,1.368,1.854,1.854,0,0,0,1.306.538h.036A1.882,1.882,0,0,0,5.52,14.194V9.921a8.514,8.514,0,0,1,3.059.822l4.894,2.371a.632.632,0,0,0,.059.025,1.882,1.882,0,0,0,2.524-1.769.627.627,0,1,0-1.254,0,.627.627,0,0,1-.816.6L9.126,9.614A9.777,9.777,0,0,0,5.52,8.663V4.5a9.639,9.639,0,0,0,3.472-.88l5-2.313a.627.627,0,0,1,.816.6V8.235A.627.627,0,0,0,15.43,8.862ZM4.265,14.194a.63.63,0,0,1-.615.627.61.61,0,0,1-.44-.179.667.667,0,0,1-.2-.473V9.291a.627.627,0,0,0-.585-.626A1.257,1.257,0,0,1,1.254,7.414V5.783A1.256,1.256,0,0,1,2.509,4.529h0l1.753-.01Z" transform="translate(0 -0.02)"/>
    </g>
  </g>
</svg>
