<svg xmlns="http://www.w3.org/2000/svg" width="15.817" height="15.808" viewBox="0 0 15.817 15.808">
  <path id="fi-rr-home" d="M15.238,5.984l-5-5a3.3,3.3,0,0,0-4.661,0l-5,5A1.963,1.963,0,0,0,0,7.382v6.47a1.977,1.977,0,0,0,1.977,1.977H13.84a1.977,1.977,0,0,0,1.977-1.977V7.382A1.963,1.963,0,0,0,15.238,5.984ZM9.886,14.511H5.931V11.918a1.977,1.977,0,0,1,3.954,0Zm4.613-.659a.659.659,0,0,1-.659.659H11.2V11.918a3.3,3.3,0,1,0-6.59,0v2.593H1.977a.659.659,0,0,1-.659-.659V7.382a.664.664,0,0,1,.193-.466l5-5a1.982,1.982,0,0,1,2.8,0l5,5a.664.664,0,0,1,.193.464Z" transform="translate(0 -0.021)"/>
</svg>
