<svg xmlns="http://www.w3.org/2000/svg" width="14.502" height="14.502" viewBox="0 0 14.502 14.502">
  <g id="_069-log-in" data-name="069-log-in" transform="translate(0)">
    <g id="Group_67766" data-name="Group 67766" transform="translate(0)">
      <g id="Group_67765" data-name="Group 67765">
        <path id="Path_2338" data-name="Path 2338" d="M12.236,0H2.266A2.269,2.269,0,0,0,0,2.266V3.4a.566.566,0,0,0,1.133,0V2.266A1.134,1.134,0,0,1,2.266,1.133h9.97a1.134,1.134,0,0,1,1.133,1.133v9.97a1.134,1.134,0,0,1-1.133,1.133H2.266a1.134,1.134,0,0,1-1.133-1.133V11.1A.566.566,0,0,0,0,11.1v1.133A2.269,2.269,0,0,0,2.266,14.5h9.97A2.269,2.269,0,0,0,14.5,12.236V2.266A2.269,2.269,0,0,0,12.236,0Z" transform="translate(0)" fill="#eb0521"/>
      </g>
    </g>
    <g id="Group_67768" data-name="Group 67768" transform="translate(6.43 3.767)">
      <g id="Group_67767" data-name="Group 67767">
        <path id="Path_2339" data-name="Path 2339" d="M230.085,135.282l-2.118-2.116a.566.566,0,1,0-.8.8l2.118,2.116a.567.567,0,0,1,0,.8l0,0-2.118,2.145a.566.566,0,1,0,.806.8l2.117-2.144A1.7,1.7,0,0,0,230.085,135.282Z" transform="translate(-227 -133)" fill="#eb0521"/>
      </g>
    </g>
    <g id="Group_67770" data-name="Group 67770" transform="translate(0 6.685)">
      <g id="Group_67769" data-name="Group 67769">
        <path id="Path_2340" data-name="Path 2340" d="M6.6,236H.566a.566.566,0,0,0,0,1.133H6.6A.566.566,0,0,0,6.6,236Z" transform="translate(0 -236)" fill="#eb0521"/>
      </g>
    </g>
  </g>
</svg>
