<svg id="_073-settings" data-name="073-settings" xmlns="http://www.w3.org/2000/svg" width="15.808" height="15.808" viewBox="0 0 15.808 15.808">
  <g id="Group_67772" data-name="Group 67772" transform="translate(4.322 4.322)">
    <g id="Group_67771" data-name="Group 67771">
      <path id="Path_2341" data-name="Path 2341" d="M143.581,140a3.581,3.581,0,1,0,1.082,7,.618.618,0,0,0-.373-1.177,2.343,2.343,0,1,1,1.543-1.577.618.618,0,0,0,1.185.347A3.584,3.584,0,0,0,143.581,140Z" transform="translate(-140 -140)"/>
    </g>
  </g>
  <g id="Group_67774" data-name="Group 67774">
    <g id="Group_67773" data-name="Group 67773">
      <path id="Path_2342" data-name="Path 2342" d="M13.955,5.743h-.311a.206.206,0,0,1-.188-.129L13.451,5.6a.207.207,0,0,1,.04-.227l.22-.22a1.855,1.855,0,0,0,0-2.62L13.274,2.1a1.852,1.852,0,0,0-2.62,0l-.22.22a.207.207,0,0,1-.227.041l-.012,0a.206.206,0,0,1-.131-.189V1.852A1.855,1.855,0,0,0,8.213,0H7.6A1.855,1.855,0,0,0,5.743,1.852v.311a.206.206,0,0,1-.131.189L5.6,2.357a.207.207,0,0,1-.227-.04l-.22-.22a1.852,1.852,0,0,0-2.62,0L2.1,2.533a1.855,1.855,0,0,0,0,2.62l.22.22a.208.208,0,0,1,.04.229l0,.009a.206.206,0,0,1-.189.131H1.852A1.855,1.855,0,0,0,0,7.6v.617a1.855,1.855,0,0,0,1.852,1.852h.311a.206.206,0,0,1,.188.129l.005.013a.207.207,0,0,1-.041.227l-.22.22a1.852,1.852,0,0,0,0,2.62l.437.437a1.852,1.852,0,0,0,2.62,0l.22-.22a.207.207,0,0,1,.227-.041l.012,0a.206.206,0,0,1,.131.189v.311A1.855,1.855,0,0,0,7.6,15.808h.617a1.855,1.855,0,0,0,1.852-1.852v-.311a.206.206,0,0,1,.131-.189l.012-.005a.207.207,0,0,1,.227.04l.22.22a1.852,1.852,0,0,0,2.62,0l.437-.437a1.852,1.852,0,0,0,0-2.62l-.22-.22a.207.207,0,0,1-.041-.227l0-.011a.206.206,0,0,1,.189-.131h.311a1.855,1.855,0,0,0,1.852-1.852V7.6A1.855,1.855,0,0,0,13.955,5.743Zm.617,2.47a.618.618,0,0,1-.617.617h-.311a1.437,1.437,0,0,0-1.33.895l0,.01a1.438,1.438,0,0,0,.308,1.573l.22.22a.618.618,0,0,1,0,.873l-.437.437a.618.618,0,0,1-.873,0l-.22-.22a1.438,1.438,0,0,0-1.574-.308l-.009,0a1.437,1.437,0,0,0-.895,1.33v.311a.618.618,0,0,1-.617.617H7.6a.618.618,0,0,1-.617-.617v-.311a1.438,1.438,0,0,0-.9-1.331l-.008,0a1.458,1.458,0,0,0-.56-.112,1.431,1.431,0,0,0-1.014.42l-.22.22a.618.618,0,0,1-.873,0L2.97,12.4a.617.617,0,0,1,0-.873l.22-.22A1.438,1.438,0,0,0,3.5,9.735l0-.01a1.437,1.437,0,0,0-1.33-.895H1.852a.618.618,0,0,1-.617-.617V7.6a.618.618,0,0,1,.617-.617h.311a1.438,1.438,0,0,0,1.331-.9l0-.007A1.438,1.438,0,0,0,3.19,4.5l-.22-.22a.618.618,0,0,1,0-.873l.437-.437a.618.618,0,0,1,.873,0l.22.22A1.438,1.438,0,0,0,6.074,3.5l.009,0a1.437,1.437,0,0,0,.895-1.33V1.852A.618.618,0,0,1,7.6,1.235h.617a.618.618,0,0,1,.617.617v.311a1.437,1.437,0,0,0,.9,1.331l.008,0a1.438,1.438,0,0,0,1.574-.308l.22-.22a.618.618,0,0,1,.873,0l.437.437a.618.618,0,0,1,0,.873l-.22.22a1.437,1.437,0,0,0-.309,1.572l0,.011a1.437,1.437,0,0,0,1.33.895h.311a.618.618,0,0,1,.617.617Z"/>
    </g>
  </g>
</svg>
