<svg xmlns="http://www.w3.org/2000/svg" width="15.238" height="19.85" viewBox="0 0 15.238 19.85">
  <g id="headset" transform="translate(-17.55)">
    <path id="Path_7349" data-name="Path 7349" d="M27.362,17.9a1.351,1.351,0,0,0-1.235-1.152A1.436,1.436,0,0,0,24.849,18.3a1.436,1.436,0,0,0,1.278,1.551,1.355,1.355,0,0,0,1.239-1.172c1.6-.129,2.945-1.708,3.3-3.61a2.394,2.394,0,0,0,1.549-1.556l.384-1.066a2.967,2.967,0,0,0-1.153-3.574l-.687-.364V8.18A8.57,8.57,0,0,0,29.5,3.66l.485-.471a.446.446,0,0,0,.037-.563,7.394,7.394,0,0,0-.859-.966.284.284,0,0,0-.448.069.445.445,0,0,0,.057.544,6.565,6.565,0,0,1,.541.575L28.3,3.826a4.029,4.029,0,0,0-6.272,0l-1.007-.977A5.439,5.439,0,0,1,25.169.775,4.9,4.9,0,0,1,26.3.908.328.328,0,0,0,26.676.6a.391.391,0,0,0-.252-.455A5.429,5.429,0,0,0,25.169,0a6.117,6.117,0,0,0-4.852,2.626.446.446,0,0,0,.037.563l.485.471A8.57,8.57,0,0,0,19.577,8.18v.328l-.687.364a2.967,2.967,0,0,0-1.153,3.574l.384,1.066a2.1,2.1,0,0,0,2.945,1.4l.878-.466a.423.423,0,0,0,.165-.511L20.216,8.681v-.5a7.645,7.645,0,0,1,1.122-4.036l.518.5a.28.28,0,0,0,.431-.035,3.507,3.507,0,0,1,5.765,0,.28.28,0,0,0,.431.035l.518-.5A7.645,7.645,0,0,1,30.121,8.18v.5l-1.893,5.254a.423.423,0,0,0,.165.511l.878.466A1.915,1.915,0,0,0,30,15.13a3.4,3.4,0,0,1-2.633,2.77Zm-1.235,1.174a.79.79,0,1,1,.639-.775A.718.718,0,0,1,26.127,19.074ZM21.4,13.89l-.586.311a1.5,1.5,0,0,1-2.1-1l-.384-1.066a2.119,2.119,0,0,1,.824-2.553l.586-.311Zm8.131.311-.586-.311,1.664-4.618.586.311a2.119,2.119,0,0,1,.824,2.553L31.631,13.2A1.505,1.505,0,0,1,29.527,14.2Z"/>
    <ellipse id="Ellipse_1568" data-name="Ellipse 1568" cx="0.32" cy="0.388" rx="0.32" ry="0.388" transform="translate(27.405 0.698)"/>
  </g>
</svg>
