<svg xmlns="http://www.w3.org/2000/svg" width="20.302" height="20.302" viewBox="0 0 20.302 20.302">
  <g id="Group_69855" data-name="Group 69855" transform="translate(-2746 2453)">
    <rect id="Rectangle_1815" data-name="Rectangle 1815" width="20.302" height="20.302" transform="translate(2746 -2453)" fill="none"/>
    <g id="_028-user-1" data-name="028-user-1" transform="translate(2747.893 -2451.633)">
      <g id="Group_67733" data-name="Group 67733" transform="translate(0)">
        <path id="Path_2321" data-name="Path 2321" d="M16.534,14.2a.647.647,0,0,0-1.268.264.677.677,0,0,1-.137.567.658.658,0,0,1-.518.246H1.965a.658.658,0,0,1-.518-.246.676.676,0,0,1-.137-.567A7.154,7.154,0,0,1,8.116,8.8q.085,0,.172,0t.172,0a7.123,7.123,0,0,1,5.752,3.162.647.647,0,1,0,1.076-.721,8.422,8.422,0,0,0-4.364-3.316,4.4,4.4,0,1,0-5.27,0A8.422,8.422,0,0,0,.042,14.2a1.967,1.967,0,0,0,1.923,2.372H14.611A1.967,1.967,0,0,0,16.534,14.2ZM5.18,4.4a3.108,3.108,0,1,1,3.265,3.1H8.131A3.112,3.112,0,0,1,5.18,4.4Z" transform="translate(0)"/>
      </g>
    </g>
  </g>
</svg>
