<svg id="fi-rr-subtitles" xmlns="http://www.w3.org/2000/svg" width="15.838" height="13.198" viewBox="0 0 15.838 13.198">
  <path id="Path_3105" data-name="Path 3105" d="M12.538,15.2H3.3A3.3,3.3,0,0,1,0,11.9V5.3A3.3,3.3,0,0,1,3.3,2h9.239a3.3,3.3,0,0,1,3.3,3.3v6.6a3.3,3.3,0,0,1-3.3,3.3ZM3.3,3.32A1.98,1.98,0,0,0,1.32,5.3v6.6a1.98,1.98,0,0,0,1.98,1.98h9.239a1.98,1.98,0,0,0,1.98-1.98V5.3a1.98,1.98,0,0,0-1.98-1.98Z" transform="translate(0 -2)"/>
  <path id="Path_3106" data-name="Path 3106" d="M15.939,12.32H10.66a.66.66,0,1,1,0-1.32h5.279a.66.66,0,1,1,0,1.32Z" transform="translate(-3.401 -5.061)"/>
  <path id="Path_3107" data-name="Path 3107" d="M5.98,12.32H4.66a.66.66,0,1,1,0-1.32H5.98a.66.66,0,1,1,0,1.32Z" transform="translate(-1.36 -5.061)"/>
  <path id="Path_3108" data-name="Path 3108" d="M9.939,17.32H4.66a.66.66,0,1,1,0-1.32H9.939a.66.66,0,1,1,0,1.32Z" transform="translate(-1.36 -6.761)"/>
  <path id="Path_3109" data-name="Path 3109" d="M17.98,17.32H16.66a.66.66,0,1,1,0-1.32h1.32a.66.66,0,1,1,0,1.32Z" transform="translate(-5.441 -6.761)"/>
</svg>
