<svg id="fi-rr-comment-alt" xmlns="http://www.w3.org/2000/svg" width="11.03" height="11.029" viewBox="0 0 11.03 11.029">
  <path id="Path_2955" data-name="Path 2955" d="M9.191,0H1.838A1.838,1.838,0,0,0,0,1.838V7.353A1.838,1.838,0,0,0,1.838,9.191H3.171l2.046,1.729a.46.46,0,0,0,.594,0L7.859,9.191H9.191A1.838,1.838,0,0,0,11.03,7.353V1.838A1.838,1.838,0,0,0,9.191,0Zm.919,7.353a.919.919,0,0,1-.919.919H7.859a.919.919,0,0,0-.593.217L5.515,9.968,3.765,8.49h0a.919.919,0,0,0-.594-.217H1.838a.919.919,0,0,1-.919-.919V1.838A.919.919,0,0,1,1.838.919H9.191a.919.919,0,0,1,.919.919Z" transform="translate(0)" fill="#f79605"/>
  <path id="Path_2956" data-name="Path 2956" d="M6.46,5.919h2.3a.46.46,0,1,0,0-.919H6.46a.46.46,0,1,0,0,.919Z" transform="translate(-3.243 -2.702)" fill="#f79605"/>
  <path id="Path_2957" data-name="Path 2957" d="M11.055,9H6.46a.46.46,0,0,0,0,.919h4.6a.46.46,0,1,0,0-.919Z" transform="translate(-3.243 -4.864)" fill="#f79605"/>
  <path id="Path_2958" data-name="Path 2958" d="M11.055,13H6.46a.46.46,0,1,0,0,.919h4.6a.46.46,0,1,0,0-.919Z" transform="translate(-3.243 -7.026)" fill="#f79605"/>
</svg>
