<svg xmlns="http://www.w3.org/2000/svg" width="18.24" height="18.24" viewBox="0 0 18.24 18.24">
  <g id="Group_68582" data-name="Group 68582" transform="translate(1.5 1.5)">
    <g id="Path_3098" data-name="Path 3098" fill="#f79605" stroke-linecap="round" stroke-linejoin="round">
      <path d="M 7.61981201171875 15.98962211608887 C 6.514222145080566 15.98962211608887 5.772441864013672 15.21097183227539 5.281591892242432 14.69572162628174 L 5.262832164764404 14.67603206634521 L 5.244272232055664 14.6536922454834 C 5.12991189956665 14.51475143432617 4.99781322479248 14.39253044128418 4.850509166717529 14.28925037384033 C 4.718971729278564 14.26414012908936 4.585161209106445 14.25144195556641 4.451332092285156 14.25144195556641 C 4.387012004852295 14.25144195556641 4.32194185256958 14.2544116973877 4.257912158966064 14.26026153564453 L 4.223832130432129 14.26338195800781 L 4.189621925354004 14.26338195800781 L 4.102022171020508 14.26348209381104 L 4.010402202606201 14.26358222961426 C 3.375371932983398 14.26358222961426 2.415712118148804 14.26358222961426 1.685732007026672 13.5379524230957 C 0.9383620023727417 12.79500198364258 0.9578320384025574 11.80407238006592 0.9720520377159119 11.08052158355713 L 0.973222017288208 11.01992225646973 L 0.9737520217895508 10.99205207824707 L 0.9763420224189758 10.9642915725708 C 0.9948288798332214 10.76646900177002 0.9851623773574829 10.56835174560547 0.9476292729377747 10.37376117706299 C 0.8442607522010803 10.22623062133789 0.7218993306159973 10.09393978118896 0.5827919840812683 9.979452133178711 L 0.5630320310592651 9.96318244934082 L 0.5444220304489136 9.945611953735352 L 0.5358620285987854 9.937521934509277 C 0.02381201088428497 9.453962326049805 -0.7499979734420776 8.72319221496582 -0.7499979734420776 7.61981201171875 C -0.7499979734420776 6.543171882629395 -0.002217988250777125 5.812252044677734 0.4926020205020905 5.328591823577881 L 0.5346519947052002 5.28746223449707 L 0.5577620267868042 5.264832019805908 L 0.5827420353889465 5.244272232055664 C 0.7218554615974426 5.129776477813721 0.8442292213439941 4.9974684715271 0.9476149082183838 4.849926471710205 C 0.9851381182670593 4.65531587600708 0.9948108196258545 4.457183837890625 0.9763420224189758 4.259342193603516 L 0.9730920195579529 4.224552154541016 L 0.9730920195579529 4.189621925354004 L 0.9729920029640198 4.102461814880371 C 0.9718320369720459 3.391242027282715 0.9702320098876953 2.417201995849609 1.700101971626282 1.687332034111023 C 2.344182014465332 1.043251991271973 3.16854190826416 0.9564120173454285 3.889991998672485 0.9564120173454285 C 4.001311779022217 0.9564120173454285 4.111571788787842 0.9584119915962219 4.21973180770874 0.9604520201683044 L 4.247601985931396 0.9609820246696472 L 4.275362014770508 0.9635720252990723 C 4.340112209320068 0.9696320295333862 4.405861854553223 0.9726920127868652 4.470761775970459 0.9726920127868652 C 4.603433132171631 0.9726920127868652 4.735809326171875 0.9600303173065186 4.86569356918335 0.9349741339683533 C 5.013004302978516 0.831718385219574 5.145498752593994 0.7091578841209412 5.260612010955811 0.569532036781311 L 5.280042171478271 0.5459620356559753 L 5.301321983337402 0.5240520238876343 L 5.334221839904785 0.4901520013809204 C 5.813342094421387 -0.003687988268211484 6.537402153015137 -0.7499979734420776 7.61981201171875 -0.7499979734420776 C 8.701421737670898 -0.7499979734420776 9.434091567993164 0.004402011632919312 9.918911933898926 0.5036020278930664 L 9.953971862792969 0.5396919846534729 L 9.975622177124023 0.5619620084762573 L 9.995351791381836 0.5859320163726807 C 10.10983943939209 0.7250269055366516 10.242112159729 0.8473706245422363 10.38961410522461 0.9507240653038025 C 10.52018260955811 0.9758563637733459 10.65297031402588 0.9885520339012146 10.78578186035156 0.9885520339012146 C 10.8504524230957 0.9885520339012146 10.9158821105957 0.9855020046234131 10.98027229309082 0.9794920086860657 L 11.01506233215332 0.9762420058250427 L 11.05001163482666 0.9762420058250427 L 11.13759231567383 0.9761419892311096 L 11.22929191589355 0.9760420322418213 C 11.86430168151855 0.9760420322418213 12.82393169403076 0.9760420322418213 13.55390167236328 1.70169198513031 C 14.31576156616211 2.459022045135498 14.29651165008545 3.47366189956665 14.28245162963867 4.214521884918213 L 14.28236198425293 4.219761848449707 L 14.28183174133301 4.247611999511719 L 14.27923202514648 4.275352001190186 C 14.26074504852295 4.473141670227051 14.27041244506836 4.671256542205811 14.30795097351074 4.86585807800293 C 14.41132259368896 5.013396263122559 14.53368282318115 5.145700931549072 14.6727819442749 5.260171890258789 L 14.69766235351563 5.280652046203613 L 14.7206916809082 5.303182125091553 L 14.76059246063232 5.342182159423828 C 15.25001239776611 5.820191860198975 15.98962211608887 6.542582035064697 15.98962211608887 7.61981201171875 C 15.98962211608887 8.696452140808105 15.24184226989746 9.427371978759766 14.74702167510986 9.911031723022461 L 14.70497226715088 9.95216178894043 L 14.68186187744141 9.97479248046875 L 14.65688228607178 9.995351791381836 C 14.51776027679443 10.10985565185547 14.39540100097656 10.24215698242188 14.2920446395874 10.38966751098633 C 14.25452136993408 10.58427810668945 14.24484348297119 10.78244113922119 14.26331233978271 10.98029232025146 L 14.26656246185303 11.01508235931396 L 14.26656246185303 11.05001163482666 L 14.26666164398193 11.13717174530029 C 14.267822265625 11.84838199615479 14.26942157745361 12.82242202758789 13.53955173492432 13.55229187011719 C 12.89548206329346 14.19636154174805 12.07112216949463 14.28320217132568 11.34967231750488 14.28321170806885 C 11.23835182189941 14.28321170806885 11.12808227539063 14.28121185302734 11.01992225646973 14.27917194366455 L 10.99170207977295 14.27863216400146 L 10.96360206604004 14.27598190307617 C 10.89903163909912 14.2698917388916 10.83340167999268 14.26680183410645 10.76856231689453 14.26680183410645 C 10.63628196716309 14.26680183410645 10.50402545928955 14.27950286865234 10.37399578094482 14.30462551116943 C 10.22667121887207 14.40788555145264 10.09416389465332 14.53045558929443 9.979042053222656 14.67009162902832 L 9.959602355957031 14.69367218017578 L 9.938311576843262 14.71559238433838 L 9.905351638793945 14.74955177307129 C 9.42623233795166 15.24336242675781 8.70217227935791 15.98962211608887 7.61981201171875 15.98962211608887 Z" stroke="none"/>
      <path d="M 7.61981201171875 15.23962211608887 C 8.40477180480957 15.23962211608887 8.966371536254883 14.63974189758301 9.400352478027344 14.19300174713135 C 9.592122077941895 13.96039199829102 9.820602416992188 13.76096248626709 10.07681179046631 13.60270214080811 C 10.30340480804443 13.54558849334717 10.53567218780518 13.51679801940918 10.76855754852295 13.51679801940918 C 10.85706615447998 13.51679801940918 10.9456787109375 13.52095794677734 11.03408241271973 13.52930164337158 C 11.13759231567383 13.5312557220459 11.24312305450439 13.53320980072021 11.34966087341309 13.5332088470459 C 11.9393835067749 13.53320407867432 12.55788040161133 13.47330284118652 13.00922203063965 13.02196216583252 C 13.54210186004639 12.48908233642578 13.51656246185303 11.72329235076904 13.51656246185303 11.05001163482666 C 13.48659229278564 10.7289924621582 13.51147174835205 10.40545177459717 13.58996200561523 10.09274196624756 C 13.74822235107422 9.836522102355957 13.94765186309814 9.607722282409668 14.18026161193848 9.416272163391113 C 14.63974189758301 8.966371536254883 15.23962211608887 8.40477180480957 15.23962211608887 7.61981201171875 C 15.23962211608887 6.83485221862793 14.63974189758301 6.273252010345459 14.19618225097656 5.839272022247314 C 13.96357154846191 5.647831916809082 13.76415157318115 5.419022083282471 13.60589218139648 5.162812232971191 C 13.52737236022949 4.850101947784424 13.50248241424561 4.526552200317383 13.53249168395996 4.205542087554932 C 13.54526233673096 3.532262086868286 13.56121158599854 2.766472101211548 13.02514171600342 2.23359203338623 C 12.53596782684326 1.747310400009155 11.858154296875 1.726046562194824 11.22929096221924 1.726046562194824 C 11.16901588439941 1.726046562194824 11.1091775894165 1.726242065429688 11.05001163482666 1.726242065429688 C 10.96201801300049 1.734459757804871 10.87388038635254 1.738553404808044 10.78578281402588 1.738553404808044 C 10.55248165130615 1.738553404808044 10.31973552703857 1.709817171096802 10.09274196624756 1.652842044830322 C 9.836522102355957 1.494582056999207 9.607722282409668 1.295161962509155 9.416272163391113 1.062551975250244 C 8.966371536254883 0.5998820066452026 8.40477180480957 2.01171883418283e-06 7.61981201171875 2.01171883418283e-06 C 6.83485221862793 2.01171883418283e-06 6.273252010345459 0.5998820066452026 5.839302062988281 1.046622037887573 C 5.647531986236572 1.279232025146484 5.419052124023438 1.478662014007568 5.162841796875 1.636922001838684 C 4.936134815216064 1.694064617156982 4.703766345977783 1.722696185112 4.470762729644775 1.722696185112 C 4.382370948791504 1.722696185112 4.293857574462891 1.718572735786438 4.205572128295898 1.710322022438049 C 4.102061748504639 1.708368062973022 3.996531009674072 1.706414937973022 3.889992713928223 1.706414937973022 C 3.300271034240723 1.706414937973022 2.68177342414856 1.766320705413818 2.230432033538818 2.21766209602356 C 1.697551965713501 2.750541925430298 1.723091959953308 3.516331911087036 1.723091959953308 4.189621925354004 C 1.753062009811401 4.510632038116455 1.728181958198547 4.834172248840332 1.649692058563232 5.146882057189941 C 1.49140202999115 5.403101921081543 1.291972041130066 5.63190221786499 1.059362053871155 5.823351860046387 C 0.5998820066452026 6.273252010345459 2.01171883418283e-06 6.83485221862793 2.01171883418283e-06 7.61981201171875 C 2.01171883418283e-06 8.40477180480957 0.5998820066452026 8.966371536254883 1.059391975402832 9.400352478027344 C 1.292001962661743 9.591792106628418 1.491432070732117 9.820602416992188 1.649692058563232 10.07681179046631 C 1.728211998939514 10.38952159881592 1.753092050552368 10.71307182312012 1.723091959953308 11.03408241271973 C 1.710322022438049 11.71055221557617 1.678411960601807 12.47315216064453 2.214482069015503 13.00604248046875 C 2.703689098358154 13.49233818054199 3.381492853164673 13.51357936859131 4.010399341583252 13.51357746124268 C 4.070631980895996 13.51357746124268 4.130496978759766 13.51338195800781 4.189621925354004 13.51338195800781 C 4.276771068572998 13.50541400909424 4.364072799682617 13.50144386291504 4.451327800750732 13.50144386291504 C 4.685472011566162 13.50144386291504 4.919067859649658 13.53005218505859 5.146882057189941 13.58678245544434 C 5.403101921081543 13.745041847229 5.63190221786499 13.94446182250977 5.823351860046387 14.1770715713501 C 6.273252010345459 14.64933204650879 6.83485221862793 15.23962211608887 7.61981201171875 15.23962211608887 M 7.61981201171875 16.73962211608887 C 6.192862033843994 16.73962211608887 5.282492160797119 15.78400230407715 4.738562107086182 15.21304225921631 C 4.713551998138428 15.18679237365723 4.688231945037842 15.15830230712891 4.665182113647461 15.13030242919922 C 4.628402233123779 15.08561706542969 4.588654518127441 15.04369831085205 4.546142101287842 15.00472068786621 C 4.514584064483643 15.00253772735596 4.482961177825928 15.00144195556641 4.451332092285156 15.00144195556641 C 4.409721851348877 15.00144195556641 4.367631912231445 15.00336170196533 4.326231956481934 15.00715160369873 C 4.280811786651611 15.01130199432373 4.235231876373291 15.01338195800781 4.189621925354004 15.01338195800781 L 4.103352069854736 15.01348209381104 L 4.010402202606201 15.01358222961426 C 3.344971895217896 15.01358222961426 2.106362104415894 15.01358222961426 1.156991958618164 14.06986236572266 C 0.182202011346817 13.10085201263428 0.2072420120239258 11.82693195343018 0.2221920043230057 11.06578159332275 L 0.2233620136976242 11.00577163696289 C 0.2240620106458664 10.9686222076416 0.226142019033432 10.93150234222412 0.2296020090579987 10.89451217651367 C 0.236347109079361 10.82233142852783 0.2372446954250336 10.75007915496826 0.2323289960622787 10.67819023132324 C 0.1931964010000229 10.63545036315918 0.1510847359895706 10.59549236297607 0.1061920151114464 10.55854225158691 C 0.07985201478004456 10.53686237335205 0.05426201224327087 10.51429176330566 0.02946201153099537 10.49087238311768 L 0.02091201208531857 10.48280239105225 C -0.5479279756546021 9.945602416992188 -1.499997973442078 9.046491622924805 -1.499997973442078 7.61981201171875 C -1.499997973442078 6.227481842041016 -0.5808280110359192 5.329041957855225 -0.03164798766374588 4.792242050170898 L 0.009932011365890503 4.751582145690918 C 0.04074200987815857 4.721412181854248 0.07284200936555862 4.692582130432129 0.1061320081353188 4.665182113647461 C 0.1510353684425354 4.62822437286377 0.1931615173816681 4.588252067565918 0.2323043346405029 4.545503616333008 C 0.2372224032878876 4.473574161529541 0.2363271117210388 4.401280879974365 0.2295820116996765 4.329061985015869 C 0.2252620160579681 4.282701969146729 0.2230920046567917 4.236172199249268 0.2230920046567917 4.189621925354004 L 0.223002016544342 4.103692054748535 C 0.2216920107603073 3.308602094650269 0.2197220176458359 2.107052087783813 1.169772028923035 1.157001972198486 C 2.120362043380737 0.2064120173454285 3.360451936721802 0.2064120173454285 3.889991998672485 0.2064120173454285 C 4.006072044372559 0.2064120173454285 4.121051788330078 0.2084620147943497 4.233821868896484 0.2105920165777206 C 4.270991802215576 0.2112920135259628 4.308112144470215 0.2133720070123672 4.345131874084473 0.2168320119380951 C 4.386772155761719 0.2207220047712326 4.429041862487793 0.2226920127868652 4.470761775970459 0.2226920127868652 C 4.50096607208252 0.2226920127868652 4.531148433685303 0.2216679751873016 4.561227321624756 0.2196294963359833 C 4.604219436645508 0.180255115032196 4.644527912139893 0.13779017329216 4.681911945343018 0.09244201332330704 C 4.707811832427979 0.0610320121049881 4.734982013702393 0.03068201243877411 4.763351917266846 0.001472011674195528 L 4.795931816101074 -0.03208798915147781 C 5.328581809997559 -0.5811079740524292 6.220071792602539 -1.499997973442078 7.61981201171875 -1.499997973442078 C 9.018531799316406 -1.499997973442078 9.918951988220215 -0.5728579759597778 10.45693206787109 -0.0189179889857769 L 10.49167156219482 0.016832010820508 C 10.52052211761475 0.04651201143860817 10.54813194274902 0.07736200839281082 10.57444190979004 0.1093220114707947 C 10.6113748550415 0.1541932970285416 10.65131855010986 0.1962913572788239 10.69403171539307 0.2354063540697098 C 10.72456932067871 0.2374999970197678 10.75518035888672 0.2385520190000534 10.78578186035156 0.2385520190000534 C 10.8272819519043 0.2385520190000534 10.86924171447754 0.2366020083427429 10.91049194335938 0.2327420115470886 C 10.95687198638916 0.2284120172262192 11.00343227386475 0.2262420058250427 11.05001163482666 0.2262420058250427 L 11.13631248474121 0.226142019033432 L 11.22929191589355 0.2260420173406601 C 11.89470195770264 0.2260420173406601 13.13329219818115 0.2260420173406601 14.08265209197998 1.169792056083679 C 15.071702003479 2.15296196937561 15.04705238342285 3.452372074127197 15.03232192993164 4.228752136230469 L 15.03222179412842 4.233992099761963 C 15.03152179718018 4.271111965179443 15.02943229675293 4.308191776275635 15.02598190307617 4.345161914825439 C 15.01923656463623 4.417323589324951 15.01833915710449 4.489560127258301 15.02325534820557 4.561439990997314 C 15.06238460540771 4.604178905487061 15.10449314117432 4.644136428833008 15.14938163757324 4.681082248687744 C 15.182541847229 4.708372116088867 15.21451187133789 4.737061977386475 15.24520206451416 4.767092227935791 L 15.28464221954346 4.805642127990723 C 15.82882213592529 5.337141990661621 16.73962211608887 6.226731777191162 16.73962211608887 7.61981201171875 C 16.73962211608887 9.012142181396484 15.8204517364502 9.910581588745117 15.27127170562744 10.4473819732666 L 15.22969245910645 10.48804187774658 C 15.19888210296631 10.51821231842041 15.16678237915039 10.54704189300537 15.1334924697876 10.57444190979004 C 15.08859729766846 10.61139488220215 15.04648208618164 10.65135669708252 15.00735187530518 10.69409084320068 C 15.00243186950684 10.76603221893311 15.00332641601563 10.83834457397461 15.01007175445557 10.91058158874512 C 15.01439189910889 10.95693206787109 15.01656246185303 11.00346183776855 15.01656246185303 11.05001163482666 L 15.01665210723877 11.13594245910645 C 15.01796245574951 11.93103218078613 15.01993179321289 13.13257217407227 14.0698823928833 14.08262157440186 C 13.11932182312012 15.03318214416504 11.87923240661621 15.03320217132568 11.34969234466553 15.03321170806885 C 11.23358154296875 15.03321170806885 11.11860179901123 15.03116226196289 11.00583171844482 15.02903175354004 C 10.96821212768555 15.0283317565918 10.93064212799072 15.02620220184326 10.89319229125977 15.02267169952393 C 10.8519115447998 15.01877212524414 10.80998229980469 15.01680183410645 10.76856231689453 15.01680183410645 C 10.73854541778564 15.01680183410645 10.70852470397949 15.01782703399658 10.67856502532959 15.01986789703369 C 10.63551712036133 15.05928039550781 10.59516906738281 15.10178184509277 10.55774211883545 15.14718246459961 C 10.53183174133301 15.17861175537109 10.50465202331543 15.20897197723389 10.47626209259033 15.23818206787109 L 10.44363212585449 15.27181243896484 C 9.910982131958008 15.82079219818115 9.019492149353027 16.73962211608887 7.61981201171875 16.73962211608887 Z" stroke="none" fill="#fff"/>
    </g>
    <path id="Path_3099" data-name="Path 3099" d="M161.1,195.279a.658.658,0,0,1-.412-.144l-1.6-1.276a.658.658,0,0,1,.823-1.027l1.136.909,2.454-2.454a.659.659,0,0,1,.932.932l-2.872,2.872A.658.658,0,0,1,161.1,195.279Z" transform="translate(-154.116 -185.406)" fill="#fff"/>
  </g>
</svg>
