<svg xmlns="http://www.w3.org/2000/svg" width="427.795" height="921.746" viewBox="0 0 427.795 921.746"><g transform="translate(6.883 6.651)"><g transform="translate(-2183.266 -920.411)"><path d="M2554.184,1699.453a1.217,1.217,0,0,1-1.216-1.188l-.284-11.85-13.011-.312-.31-13.009-13.01-.31-.338-14.169a1.217,1.217,0,1,1,2.434-.059l.282,11.849,13.01.31.31,13.01,13.01.311.34,14.171a1.217,1.217,0,0,1-1.188,1.246Z" transform="translate(0)" fill="#fec55e"/></g><path d="M2562.276,1293.055a17.979,17.979,0,1,0,17.98,17.98A17.979,17.979,0,0,0,2562.276,1293.055Zm0,29.623a11.644,11.644,0,1,1,11.645-11.644A11.644,11.644,0,0,1,2562.276,1322.678Z" transform="translate(-2497.052 -688.1)" fill="#f1f2f2"/><path d="M2562.276,1293.055a17.979,17.979,0,1,0,17.98,17.98A17.979,17.979,0,0,0,2562.276,1293.055Zm0,29.623a11.644,11.644,0,1,1,11.645-11.644A11.644,11.644,0,0,1,2562.276,1322.678Z" transform="translate(-2215.583 -1242.057)" fill="#f1f2f2"/><circle cx="9.479" cy="9.479" r="9.479" transform="translate(257 156.126)" fill="#fec55e"/><circle cx="6.836" cy="6.836" r="6.836" transform="translate(371.052 428.241)" fill="#f67"/><circle cx="9.285" cy="9.285" r="9.285" transform="translate(47.245 844.76)" fill="#f67"/><g transform="translate(-43.645 -851.679)"><path d="M152.342,1062.253h-.036l-6.79-.162a8.6,8.6,0,0,1-8.405-8.405,5.629,5.629,0,0,0-5.5-5.5,8.6,8.6,0,0,1-8.406-8.4,5.63,5.63,0,0,0-5.5-5.5l-6.793-.162a1.489,1.489,0,0,1,.071-2.977l6.793.162a8.6,8.6,0,0,1,8.4,8.4,5.63,5.63,0,0,0,5.5,5.5,8.6,8.6,0,0,1,8.406,8.405,5.629,5.629,0,0,0,5.5,5.5l6.79.162a1.489,1.489,0,0,1-.035,2.977Z" transform="translate(0)" fill="#f67"/></g><g transform="translate(-1641.759 373.812)"><g transform="translate(1647.092 26.989)"><circle cx="5.628" cy="5.628" r="5.628" transform="translate(2.579 104.508)" fill="#f1f2f2"/><circle cx="5.628" cy="5.628" r="5.628" transform="matrix(0.896, -0.443, 0.443, 0.896, 0.544, 86.918)" fill="#f1f2f2"/><circle cx="5.628" cy="5.628" r="5.628" transform="translate(0 68.803) rotate(-45)" fill="#f1f2f2"/><circle cx="5.628" cy="5.628" r="5.628" transform="translate(1.503 52.958) rotate(-82.292)" fill="#f1f2f2"/><path d="M1771.844,86.8a5.628,5.628,0,1,1-5.595,5.662A5.629,5.629,0,0,1,1771.844,86.8Z" transform="translate(-1764.165 -64.964)" fill="#f1f2f2"/><circle cx="5.628" cy="5.628" r="5.628" transform="matrix(0.237, -0.971, 0.971, 0.237, 0.785, 10.935)" fill="#f1f2f2"/></g><g transform="translate(1669.559 27.743)"><path d="M1833.534,308.247a5.628,5.628,0,1,1-5.595,5.662A5.628,5.628,0,0,1,1833.534,308.247Z" transform="translate(-1825.36 -204.734)" fill="#f1f2f2"/><circle cx="5.628" cy="5.628" r="5.628" transform="translate(0.443 86.242) rotate(-28.713)" fill="#f1f2f2"/><circle cx="5.628" cy="5.628" r="5.628" transform="translate(0 67.808) rotate(-45)" fill="#f1f2f2"/><path d="M1832.535,141.68a5.628,5.628,0,1,1-5.594,5.662A5.628,5.628,0,0,1,1832.535,141.68Z" transform="translate(-1824.733 -100.167)" fill="#f1f2f2"/><path d="M1832.2,86.158a5.628,5.628,0,1,1-5.594,5.662A5.628,5.628,0,0,1,1832.2,86.158Z" transform="translate(-1824.524 -65.312)" fill="#f1f2f2"/><circle cx="5.628" cy="5.628" r="5.628" transform="translate(1.781 0.364) rotate(-1.853)" fill="#f1f2f2"/></g></g><g transform="translate(-1208.759 129.812)"><g transform="translate(1579.759 26.995)"><path d="M1592.1,310.835a5.628,5.628,0,1,1-5.594,5.662A5.628,5.628,0,0,1,1592.1,310.835Z" transform="translate(-1583.993 -205.611)" fill="#f1f2f2"/><path d="M1591.764,255.313a5.628,5.628,0,1,1-5.594,5.662A5.628,5.628,0,0,1,1591.764,255.313Z" transform="translate(-1583.784 -170.755)" fill="#f1f2f2"/><path d="M1591.431,199.79a5.628,5.628,0,1,1-5.594,5.662A5.628,5.628,0,0,1,1591.431,199.79Z" transform="translate(-1583.575 -135.899)" fill="#f1f2f2"/><path d="M1591.1,144.268a5.628,5.628,0,1,1-5.594,5.662A5.628,5.628,0,0,1,1591.1,144.268Z" transform="translate(-1583.366 -101.044)" fill="#f1f2f2"/><circle cx="5.628" cy="5.628" r="5.628" transform="translate(0.302 25.107) rotate(-22.246)" fill="#f1f2f2"/><circle cx="5.628" cy="5.628" r="5.628" transform="matrix(0.9, -0.436, 0.436, 0.9, 0, 4.906)" fill="#f1f2f2"/></g><g transform="translate(1601.786 26.313)"><circle cx="5.628" cy="5.628" r="5.628" transform="translate(0.62 111.293) rotate(-45)" fill="#f1f2f2"/><circle cx="5.628" cy="5.628" r="5.628" transform="matrix(0.237, -0.971, 0.971, 0.237, 1.653, 94.76)" fill="#f1f2f2"/><path d="M1651.791,199.143a5.628,5.628,0,1,1-5.595,5.662A5.628,5.628,0,0,1,1651.791,199.143Z" transform="translate(-1643.493 -134.811)" fill="#f1f2f2"/><circle cx="5.628" cy="5.628" r="5.628" transform="translate(1.402 53.422) rotate(-76.246)" fill="#f1f2f2"/><path d="M1651.124,88.1a5.628,5.628,0,1,1-5.595,5.662A5.628,5.628,0,0,1,1651.124,88.1Z" transform="translate(-1643.074 -65.101)" fill="#f1f2f2"/><circle cx="5.628" cy="5.628" r="5.628" transform="translate(0 7.96) rotate(-45)" fill="#f1f2f2"/></g></g><path d="M206.011,89.132A103.586,103.586,0,0,1,75.5,203.169" transform="translate(-75 -89)" fill="none" stroke="#f79605" stroke-linecap="round" stroke-width="12"/><path d="M103.5,207A103.5,103.5,0,0,1,0,103.5" transform="matrix(-0.105, 0.995, -0.995, -0.105, 517.252, 816.386)" fill="none" stroke="#f79605" stroke-linecap="round" stroke-width="12"/></g></svg>