<svg id="hot-sale_1_" data-name="hot-sale (1)" xmlns="http://www.w3.org/2000/svg" width="6.615" height="8.467" viewBox="0 0 6.615 8.467">
  <path id="Path_2374" data-name="Path 2374" d="M61.041,1.6A11.521,11.521,0,0,0,59.479.056a.265.265,0,0,0-.428.208V1.428a.585.585,0,0,1-1.093.29.265.265,0,0,0-.435-.037,5.8,5.8,0,0,0-1.515,3.478,3.307,3.307,0,0,0,6.615,0A5.885,5.885,0,0,0,61.041,1.6ZM57.861,4.233a.529.529,0,1,1,.529.529A.53.53,0,0,1,57.861,4.233ZM58.6,6.512a.265.265,0,1,1-.418-.325l1.852-2.381a.265.265,0,0,1,.418.325Zm1.643.1a.529.529,0,1,1,.529-.529A.53.53,0,0,1,60.242,6.615Z" transform="translate(-56.009 0)" fill="#0090ff"/>
</svg>
