<svg xmlns="http://www.w3.org/2000/svg" width="33" height="33" viewBox="0 0 33 33">
  <g id="Group_67813" data-name="Group 67813" transform="translate(-2746 2453.203)">
    <rect id="Rectangle_1815" data-name="Rectangle 1815" width="33" height="33" transform="translate(2746 -2453.203)" fill="none"/>
    <g id="_028-user-1" data-name="028-user-1" transform="translate(2751.678 -2447.973)">
      <g id="Group_67733" data-name="Group 67733" transform="translate(0)">
        <path id="Path_2321" data-name="Path 2321" d="M21.483,18.455a.841.841,0,0,0-1.647.343.879.879,0,0,1-.178.737.855.855,0,0,1-.673.32H2.553a.855.855,0,0,1-.673-.32A.879.879,0,0,1,1.7,18.8a9.3,9.3,0,0,1,8.844-7.36q.111,0,.223,0t.224,0a9.255,9.255,0,0,1,7.474,4.108.841.841,0,1,0,1.4-.937A10.943,10.943,0,0,0,14.194,10.3a5.721,5.721,0,1,0-6.848,0A10.943,10.943,0,0,0,.055,18.455a2.556,2.556,0,0,0,2.5,3.082H18.985a2.556,2.556,0,0,0,2.5-3.082ZM6.731,5.721a4.038,4.038,0,1,1,4.243,4.033l-.2,0-.2,0A4.043,4.043,0,0,1,6.731,5.721Z" transform="translate(0 0)" fill="#c8c8c8"/>
      </g>
    </g>
  </g>
</svg>
