<svg xmlns="http://www.w3.org/2000/svg" width="33" height="33" viewBox="0 0 33 33">
  <g id="Group_67839" data-name="Group 67839" transform="translate(-3200.261 2452.979)">
    <rect id="Rectangle_1817" data-name="Rectangle 1817" width="33" height="33" transform="translate(3200.261 -2452.979)" fill="none"/>
    <path id="fi-rr-home" d="M19.371,7.6,13.016,1.246a4.2,4.2,0,0,0-5.925,0L.736,7.6A2.5,2.5,0,0,0,0,9.378V17.6a2.513,2.513,0,0,0,2.513,2.513h15.08A2.513,2.513,0,0,0,20.107,17.6V9.378A2.5,2.5,0,0,0,19.371,7.6Zm-6.8,10.839H7.54v-3.3a2.513,2.513,0,0,1,5.027,0Zm5.865-.838a.838.838,0,0,1-.838.838H14.243v-3.3a4.189,4.189,0,0,0-8.378,0v3.3H2.513a.838.838,0,0,1-.838-.838V9.378a.844.844,0,0,1,.245-.592L8.276,2.433a2.52,2.52,0,0,1,3.556,0l6.355,6.356a.844.844,0,0,1,.245.59Z" transform="translate(3205.915 -2446.548)" fill="#d2d2d2"/>
  </g>
</svg>
