<svg xmlns="http://www.w3.org/2000/svg" width="33" height="33" viewBox="0 0 33 33"><g transform="translate(-2967 2452.819)"><rect width="33" height="33" transform="translate(2967 -2452.819)" fill="none"/><g transform="translate(2975.119 -2447.163)"><path d="M68.9,4.1a29.519,29.519,0,0,0-4-3.953.678.678,0,0,0-1.1.534v2.98A1.5,1.5,0,0,1,61,4.4a.678.678,0,0,0-1.113-.094c-2.052,2.5-3.881,5.659-3.881,8.908a8.472,8.472,0,0,0,16.943,0c0-3.334-1.926-6.573-4.055-9.118ZM64.481,20.333a7.124,7.124,0,0,1-7.116-7.116c0-2.734,1.563-5.438,3.062-7.4a2.858,2.858,0,0,0,4.732-2.156v-1.5c3.005,2.746,6.438,7,6.438,11.059A7.124,7.124,0,0,1,64.481,20.333Z" transform="translate(-56.009 0)" fill="#c8c8c8"/><path d="M189.823,224.16a.678.678,0,0,0-.951.119l-4.744,6.1a.678.678,0,1,0,1.07.832l4.744-6.1A.678.678,0,0,0,189.823,224.16Z" transform="translate(-178.564 -214.529)" fill="#c8c8c8"/><ellipse cx="1.355" cy="1.355" rx="1.355" ry="1.355" transform="translate(9.488 14.233)" fill="#c8c8c8"/><ellipse cx="1.355" cy="1.355" rx="1.355" ry="1.355" transform="translate(4.744 9.489)" fill="#c8c8c8"/></g></g></svg>